<svg xmlns="http://www.w3.org/2000/svg" viewBox="0 0 20 16.7"><defs><style>.cls-1,.cls-2{fill:#fff;}.cls-2{fill-rule:evenodd;}</style></defs><title>Asset 4</title><g id="Layer_2" data-name="Layer 2"><g id="Layer_1-2" data-name="Layer 1"><g id="iQ1WU9.tif"><path class="cls-1" d="M19.76,9.12c-.3,1.08-1.25,1.24-2.41,1a.52.52,0,0,1-.47-.59c0-.54,0-1.08,0-1.63a6.9,6.9,0,1,0-9.43,6.29c.18.07.4.22.55.05.82-.92,1.89-.59,2.88-.57a1.41,1.41,0,0,1,1.36,1.53,1.44,1.44,0,0,1-1.4,1.43c-.54,0-1.08,0-1.63,0a1.41,1.41,0,0,1-1.38-1,.74.74,0,0,0-.51-.51,7.68,7.68,0,0,1-4.65-4.61c-.12-.32-.28-.45-.62-.4a1.49,1.49,0,0,1-1.82-1,5.2,5.2,0,0,1,0-3A1.5,1.5,0,0,1,1,5.31c.27-.12.51-.16.69.11a.44.44,0,0,1-.16.67c-.15.1-.34.19-.35.36a9.81,9.81,0,0,0,0,2.46c.08.4.49.37.82.34s.14-.38.14-.56a11.56,11.56,0,0,1,.11-2.33A7.81,7.81,0,0,1,16.55,3.59a8.87,8.87,0,0,1,1.26,5.15c0,.5.22.64.66.45a.6.6,0,0,0,.36-.63c0-.52,0-1,0-1.56s0-.72-.42-.93a.43.43,0,0,1-.15-.67c.15-.23.39-.21.64-.11a1.49,1.49,0,0,1,.86.84A4.82,4.82,0,0,1,19.76,9.12Zm-9,6.63a.52.52,0,0,0,.52-.56.49.49,0,0,0-.46-.54,12.36,12.36,0,0,0-1.68,0,.5.5,0,0,0-.48.58.53.53,0,0,0,.54.53c.26,0,.52,0,.78,0h0C10.26,15.76,10.52,15.78,10.77,15.75Z"/></g><path class="cls-2" d="M10.2,2.27A5.37,5.37,0,1,1,4.83,7.63,5.37,5.37,0,0,1,10.2,2.27Zm4,5.37a4,4,0,1,0-4,4A4,4,0,0,0,14.19,7.63Z"/></g></g></svg>